<svg width="21" height="21" viewBox="0 0 21 21" fill="none" xmlns="http://www.w3.org/2000/svg">
<path d="M19.0323 2.625H1.96756C0.880259 2.625 -0.00119019 3.50641 -0.00119019 4.59375V16.4062C-0.00119019 17.4936 0.880259 18.375 1.96756 18.375H19.0323C20.1196 18.375 21.0011 17.4936 21.0011 16.4062V4.59375C21.0011 3.50641 20.1196 2.625 19.0323 2.625ZM20.3448 16.1145L14.1371 9.90675L20.3448 5.95101V16.1145ZM1.96756 3.28125H19.0323C19.756 3.28125 20.3448 3.87 20.3448 4.59375V5.17335L11.3097 10.931C10.8207 11.2424 10.1962 11.2328 9.7184 10.9079L0.65506 4.7478V4.59375C0.65506 3.87 1.24388 3.28125 1.96756 3.28125ZM0.65506 5.54046L6.95037 9.81917L0.65506 16.1145V5.54046ZM19.0323 17.7188H1.96756C1.42701 17.7188 0.962218 17.3899 0.761339 16.9221L7.49443 10.189L9.34991 11.4501C9.70622 11.6923 10.1183 11.8138 10.531 11.8138C10.9232 11.8138 11.3161 11.7042 11.6618 11.484L13.5789 10.2624L20.2385 16.9221C20.0377 17.3899 19.5729 17.7188 19.0323 17.7188Z" fill="#31353b"/>
</svg>
